<svg width="120" height="96" viewBox="0 0 120 96" fill="none" xmlns="http://www.w3.org/2000/svg">
<path d="M38.9709 55.1616C40.0594 55.1616 40.9425 56.0438 40.9425 57.1332V63.0516C40.9425 63.3666 40.9744 63.6582 41.0372 63.9263C41.1 64.1935 41.1844 64.4429 41.2894 64.6744C41.489 65.116 41.7572 65.5041 42.0937 65.8397C42.4303 66.1763 42.8194 66.4435 43.2609 66.6432C43.4915 66.7482 43.7419 66.8354 44.01 66.9029C44.2781 66.9713 44.5697 67.0051 44.8856 67.0051C45.2109 67.0051 45.5062 66.9713 45.7687 66.9029C46.0312 66.8344 46.2787 66.7482 46.5103 66.6432C46.9519 66.4435 47.3409 66.1763 47.6775 65.8397C48.014 65.5041 48.2822 65.116 48.4819 64.6744C48.5869 64.4429 48.6712 64.1935 48.734 63.9263C48.7969 63.6591 48.8287 63.3676 48.8287 63.0516V57.1332C48.8287 56.0447 49.7109 55.1616 50.8003 55.1616C51.8887 55.1616 52.7719 56.0438 52.7719 57.1332V62.9682V63.031C52.7719 63.0526 52.769 63.0572 52.7644 63.0469C52.7587 63.0366 52.7512 63.0413 52.7409 63.0629C52.7409 63.0844 52.7437 63.1097 52.7494 63.1416C52.755 63.1735 52.7522 63.1997 52.7409 63.2204C52.7409 63.4519 52.725 63.6779 52.694 63.8982C52.5994 64.7607 52.394 65.5332 52.079 66.2166C51.4687 67.5732 50.5912 68.656 49.4456 69.4651C49.0144 69.7697 48.5465 70.0351 48.0422 70.261C47.5378 70.4869 46.98 70.6632 46.3706 70.7897C46.2234 70.8216 46.0687 70.8451 45.9056 70.861C45.7425 70.8769 45.5719 70.8947 45.3928 70.9163C44.8462 70.9585 44.3203 70.9397 43.8159 70.861C43.3115 70.7822 42.854 70.6744 42.4444 70.5376C41.6972 70.2854 41.0353 69.9544 40.4569 69.5438C39.8681 69.1444 39.345 68.6785 38.8875 68.1479C38.43 67.6172 38.0494 67.0041 37.7437 66.3104C37.5862 65.9738 37.4494 65.6166 37.334 65.2379C37.2178 64.8591 37.1344 64.4494 37.0819 64.0079C37.05 63.7238 37.035 63.4294 37.035 63.1247V63.0619C37.0247 63.0413 37.0162 63.0357 37.0115 63.046C37.0059 63.0563 37.004 63.0516 37.004 63.0301V62.9672V57.1322C36.9994 56.0438 37.8825 55.1616 38.9709 55.1616Z" fill="#404041"/>
<path d="M85.89 70.9612H83.4816C82.9688 70.9612 82.5535 70.5459 82.5535 70.0331V56.0878C82.5535 55.575 82.9688 55.1597 83.4816 55.1597H85.89C86.4028 55.1597 86.8182 55.575 86.8182 56.0878V70.0331C86.8182 70.5459 86.4028 70.9612 85.89 70.9612Z" fill="#404041"/>
<path d="M67.6744 55.1597C66.8297 55.1597 66.0994 55.6509 65.7544 56.3634C65.5097 56.2059 65.2566 56.0615 64.996 55.9331C64.665 55.77 64.3097 55.6312 63.931 55.515C63.7416 55.4625 63.5466 55.4128 63.3469 55.365C63.1472 55.3181 62.9363 55.2731 62.716 55.2309C62.4103 55.1887 62.0869 55.1625 61.7456 55.1522C61.4035 55.1419 61.0753 55.1522 60.7594 55.184C60.1603 55.2469 59.6156 55.3603 59.1263 55.5234C58.6369 55.6865 58.1719 55.889 57.7294 56.1309C56.7722 56.6672 55.9566 57.3665 55.2835 58.229C54.9572 58.6603 54.6703 59.1309 54.4238 59.6409C54.1763 60.1509 53.9841 60.7115 53.8481 61.3219C53.7741 61.6481 53.7216 61.9819 53.6906 62.324C53.6588 62.6662 53.6541 63.0262 53.6747 63.405C53.7066 64.1203 53.8172 64.7672 54.0066 65.3456C54.1856 65.9137 54.4116 66.4397 54.6853 66.9234C54.9591 67.4072 55.2741 67.8487 55.6322 68.249C55.9894 68.6597 56.3841 69.0272 56.8153 69.3534C57.2466 69.6797 57.72 69.9581 58.2356 70.1897C58.7513 70.4315 59.3241 70.6265 59.956 70.7737C60.5869 70.9209 61.2816 70.9687 62.0391 70.9162C62.7338 70.8637 63.3619 70.7447 63.9244 70.5609C64.4869 70.3772 65.0053 70.1484 65.4788 69.8747L65.5106 69.8587L65.7441 69.7322C66.0844 70.4587 66.8213 70.9622 67.6763 70.9622C68.8538 70.9622 69.8081 70.0078 69.8081 68.8303V57.2925C69.8072 56.115 68.8519 55.1597 67.6744 55.1597ZM65.43 63.8465C65.3456 64.2469 65.2144 64.6097 65.0353 64.935C64.8563 65.2612 64.6463 65.5453 64.4044 65.7872C64.1625 66.029 63.886 66.2447 63.5756 66.434C63.2653 66.6234 62.91 66.7659 62.5106 66.8606C62.2688 66.9131 61.9791 66.9506 61.6425 66.9712C61.3266 66.9928 61.0294 66.9684 60.751 66.9C60.4725 66.8315 60.2166 66.75 59.986 66.6553C59.5331 66.4556 59.1394 66.1922 58.8028 65.8659C58.561 65.624 58.3453 65.3484 58.156 65.0372C57.9666 64.7269 57.8194 64.3772 57.7144 63.9881C57.6619 63.7462 57.6244 63.4519 57.6038 63.104C57.5831 62.7994 57.6094 62.5022 57.6825 62.2125C57.7556 61.9237 57.8344 61.6734 57.9188 61.4634C58.0341 61.2215 58.1522 61.0059 58.2741 60.8165C58.395 60.6272 58.5394 60.4434 58.7081 60.2644C59.0344 59.9381 59.4178 59.6653 59.8603 59.444C60.0816 59.339 60.3263 59.25 60.5944 59.1759C60.8625 59.1028 61.1541 59.0653 61.47 59.0653C61.786 59.055 62.0878 59.084 62.3775 59.1525C62.6672 59.2209 62.9166 59.3025 63.1266 59.3972C63.5897 59.5969 63.9835 59.8603 64.3097 60.1865C64.6463 60.5231 64.9247 60.9103 65.146 61.3462C65.3672 61.7831 65.4881 62.3165 65.5088 62.9484C65.52 63.2419 65.4938 63.5419 65.43 63.8465Z" fill="#404041"/>
<path d="M79.261 71.009C76.2328 71.009 74.4431 69.7987 73.4738 68.7843C71.3963 66.6075 71.3747 63.7031 71.3916 63.149V57.1031C71.3916 55.934 72.3394 54.9862 73.5085 54.9862C74.6775 54.9862 75.6253 55.934 75.6253 57.1031V63.2559L75.6235 63.2765C75.6225 63.4256 75.6347 64.935 76.5544 65.879C77.1338 66.4734 78.0441 66.7753 79.261 66.7753C80.43 66.7753 81.3778 67.7231 81.3778 68.8921C81.3778 70.0612 80.43 71.009 79.261 71.009Z" fill="#404041"/>
<path opacity="0.7" d="M42.6863 42.2503C42.6863 42.2503 57.6038 42.1791 63.7641 46.9387C63.7641 46.9387 76.3847 56.2922 86.1938 42.2916L42.6863 42.2503Z" fill="#25A9E0"/>
<path d="M86.1234 42.2503L76.9594 32.6494C76.9594 32.6494 72.3384 27.0835 67.3584 31.995C67.3584 31.995 63.7228 36.1097 58.1944 37.0135C58.1944 37.0135 50.5575 37.8863 49.6847 42.2503H86.1234Z" fill="#DF1174"/>
<path opacity="0.85" d="M37.6641 42.2503C39.2728 34.6322 39.5494 22.59 48.5644 20.7862C59.3822 18.9834 63.5897 32.8059 72.0037 37.6143C72.0037 37.6143 76.9303 40.575 81.3787 42.2503H37.6641Z" fill="#F9EC31"/>
</svg>
